<svg xmlns="http://www.w3.org/2000/svg" fill="none" viewBox="0 0 807 256" height="256" width="807">
<g clip-path="url(#clip0_1475_66)">
<path fill="#231F20" d="M338.89 195.72C354.49 194.13 373.01 194.66 386.5 196.25C387.29 196.25 387.29 195.19 386.5 195.19C371.42 193.87 364.02 180.11 364.02 157.63L363.49 23.54H363.75L484.88 196.25C485.94 197.57 487 197.04 487 195.46L485.94 155.52L487.26 42.59C487.52 20.64 494.4 8.74 507.63 5.03C508.42 5.03 508.42 3.97 507.63 3.97C493.08 5.82 475.36 5.56 462.67 3.97C461.88 3.97 461.88 5.03 462.67 5.03C477.75 6.35 485.15 20.37 485.15 42.85L484.89 149.44H484.63L381.47 4.23C381.21 3.7 380.68 3.44 380.15 3.44L368.25 3.97C365.08 4.23 349.47 3.97 341.01 3.44C340.22 3.44 340.22 4.5 341.01 4.5C355.56 5.29 362.43 14.29 362.43 29.36L361.9 157.9C361.9 180.12 353.7 190.96 338.89 194.66C338.1 194.66 338.1 195.72 338.89 195.72ZM535.13 195.72C545.18 195.19 557.08 195.19 569.51 195.19C581.94 195.19 591.46 195.45 600.98 195.72C601.77 195.72 601.77 194.66 600.98 194.66C581.94 194.13 580.61 179.06 580.61 162.66V31.74C580.61 15.34 581.93 5.82 600.98 5.03C601.77 5.03 601.77 3.97 600.98 3.97C591.72 4.5 581.94 4.5 569.51 4.5C557.08 4.5 544.91 4.5 535.13 3.97C534.34 3.97 534.34 5.03 535.13 5.03C554.7 5.82 556.02 15.34 556.02 31.74V162.66C556.02 179.06 554.7 193.87 535.13 194.66C534.34 194.66 534.34 195.72 535.13 195.72Z"></path>
<path fill="#231F20" d="M262.49 103.63C206.06 111.86 162.71 134.53 159.66 175.76L162.38 178.3C160.88 168.97 165.45 159.84 174.46 153.24C191.69 140.46 227.42 129.43 267.29 121.54C267.29 121.54 269.14 122.1 262.49 103.63Z"></path>
<path fill="#231F20" d="M263.28 168.21C270.16 185.67 268.57 193.07 247.15 194.66C246.36 194.66 246.36 195.72 247.15 195.72C265.93 194.4 294.76 194.4 314.06 195.72C314.85 195.72 314.85 194.66 314.06 194.66C299.51 193.87 293.69 178 288.14 164.24L222.55 2.63999C222.02 1.31999 219.91 1.31999 219.38 2.89999L209.59 36.49L162.78 156.3C155.37 175.08 147.18 191.74 134.22 194.65C133.43 194.65 133.43 195.71 134.22 195.71C148.24 195.18 171.25 194.92 183.15 195.71C183.94 195.71 183.94 194.65 183.15 194.65C165.96 193.86 156.7 179.31 165.17 157.09L178.66 121.12L210.66 36.48H210.92"></path>
<path fill="#231F20" d="M754.13 103.63C697.7 111.86 654.34 134.53 651.3 175.76L654.02 178.3C652.52 168.97 657.09 159.84 666.1 153.24C683.33 140.46 719.06 129.43 758.93 121.54C758.93 121.54 760.78 122.1 754.13 103.63Z"></path>
<path fill="#231F20" d="M754.92 168.21C761.8 185.67 760.21 193.07 738.78 194.66C737.99 194.66 737.99 195.72 738.78 195.72C757.56 194.4 786.39 194.4 805.69 195.72C806.48 195.72 806.48 194.66 805.69 194.66C791.14 193.87 785.33 178 779.77 164.24L714.19 2.63999C713.66 1.31999 711.55 1.31999 711.02 2.89999L701.23 36.49L654.42 156.3C647.01 175.08 638.81 191.74 625.85 194.65C625.06 194.65 625.06 195.71 625.85 195.71C639.87 195.18 662.88 194.92 674.78 195.71C675.57 195.71 675.57 194.65 674.78 194.65C657.59 193.86 648.33 179.31 656.79 157.09L670.28 121.12L702.28 36.48H702.54"></path>
<path fill="#231F20" d="M59.81 199.69C95.52 199.69 125.14 174.3 125.14 138.07C125.14 101.84 101.6 87.55 69.33 78.3C39.18 69.57 23.57 62.7 23.57 36.78C23.57 15.08 37.33 1.06 58.49 1.06C82.03 1.06 100.28 17.72 107.16 53.43C107.16 54.22 108.48 54.22 108.22 53.43C106.1 37.03 106.1 20.37 107.69 3.97C107.69 3.44 107.16 2.91 106.63 3.71L96.58 19.05C87.31 8.2 75.94 0 57.69 0C29.39 0 2.68 18.51 2.68 49.99C2.68 76.97 16.96 89.93 51.61 101.3C88.37 113.2 105.04 121.67 105.04 153.14C105.04 181.44 86.79 198.63 59.02 198.63C29.13 198.63 7.71 179.32 1.1 143.62C1.1 142.83 -0.22 142.83 0.0400002 143.62C2.16 159.75 2.16 176.42 0.57 193.08C0.57 193.87 1.1 194.14 1.63 193.34L11.68 178C22.79 190.96 38.92 199.69 59.82 199.69H59.81Z"></path>
<path fill="#231F20" d="M235.05 237.74L219.71 221.87V254.75H224.65V233.37L235.05 244.13L245.45 233.37V254.75H250.43V221.87L235.05 237.74ZM294.91 254.76H300.2L286.23 221.88L272.17 254.76H277.42L280.06 248.02H292.31L294.91 254.76ZM281.6 244.13L286.23 232.4L290.81 244.13H281.6ZM329.73 255.33C336.39 255.33 340.49 251.1 340.49 245.81C340.49 235.8 326.47 237.13 326.47 230.69C326.47 228.27 328.63 226.33 331.72 226.33C333.66 226.33 335.6 227.08 337.45 228.27L339.7 224.66C337.28 222.94 334.19 221.97 331.37 221.97C325.55 221.97 321.41 225.8 321.41 230.87C321.41 240.74 335.21 239.2 335.21 245.86C335.21 248.64 332.79 250.75 329.48 250.75C327.14 250.75 324.68 249.78 322.34 247.88L319.78 251.45C322.95 254.14 326.22 255.33 329.74 255.33H329.73ZM374.17 238.18L387.17 222.53H381.31L368.61 238.18V222.53H363.58V254.75H368.61V239.01C373.55 241.96 376.72 251.09 381.92 254.75H388.27C381.61 249.5 378.04 240.42 374.16 238.18H374.17ZM429.97 254.76H435.26L421.29 221.88L407.23 254.76H412.48L415.12 248.02H427.37L429.97 254.76ZM416.66 244.13L421.29 232.4L425.87 244.13H416.66ZM473.48 222.53H450.43V227.11H459.47V254.75H464.5V227.11H473.49V222.53H473.48ZM495.17 254.76H500.15V222.54H495.17V254.76ZM540.22 222.53L533.87 236.9L527.17 222.53H521.75L531.27 242.23L525.23 254.75H530.61L545.69 222.53H540.22ZM581.13 254.76H586.42L572.45 221.88L558.39 254.76H563.64L566.28 248.02H578.53L581.13 254.76ZM567.81 244.13L572.44 232.4L577.02 244.13H567.81Z"></path>
<path stroke-miterlimit="5.08" stroke-width="0.66" stroke="#231F20" d="M235.05 237.74L219.71 221.87V254.75H224.65V233.37L235.05 244.13L245.45 233.37V254.75H250.43V221.87L235.05 237.74ZM294.91 254.76H300.2L286.23 221.88L272.17 254.76H277.42L280.06 248.02H292.31L294.91 254.76ZM281.6 244.13L286.23 232.4L290.81 244.13H281.6ZM329.73 255.33C336.39 255.33 340.49 251.1 340.49 245.81C340.49 235.8 326.47 237.13 326.47 230.69C326.47 228.27 328.63 226.33 331.72 226.33C333.66 226.33 335.6 227.08 337.45 228.27L339.7 224.66C337.28 222.94 334.19 221.97 331.37 221.97C325.55 221.97 321.41 225.8 321.41 230.87C321.41 240.74 335.21 239.2 335.21 245.86C335.21 248.64 332.79 250.75 329.48 250.75C327.14 250.75 324.68 249.78 322.34 247.88L319.78 251.45C322.95 254.14 326.22 255.33 329.74 255.33H329.73ZM374.17 238.18L387.17 222.53H381.31L368.61 238.18V222.53H363.58V254.75H368.61V239.01C373.55 241.96 376.72 251.09 381.92 254.75H388.27C381.61 249.5 378.04 240.42 374.16 238.18H374.17ZM429.97 254.76H435.26L421.29 221.88L407.23 254.76H412.48L415.12 248.02H427.37L429.97 254.76ZM416.66 244.13L421.29 232.4L425.87 244.13H416.66ZM473.48 222.53H450.43V227.11H459.47V254.75H464.5V227.11H473.49V222.53H473.48ZM495.17 254.76H500.15V222.54H495.17V254.76ZM540.22 222.53L533.87 236.9L527.17 222.53H521.75L531.27 242.23L525.23 254.75H530.61L545.69 222.53H540.22ZM581.13 254.76H586.42L572.45 221.88L558.39 254.76H563.64L566.28 248.02H578.53L581.13 254.76ZM567.81 244.13L572.44 232.4L577.02 244.13H567.81Z"></path>
</g>
<defs>
<clipPath id="clip0_1475_66">
<rect fill="white" height="255.66" width="806.29"></rect>
</clipPath>
</defs>
</svg>
